<mxfile host="app.diagrams.net" modified="2021-06-03T20:14:26.193Z" agent="5.0 (X11; Linux x86_64) AppleWebKit/537.36 (KHTML, like Gecko) Chrome/91.0.4472.77 Safari/537.36" etag="Lz4Xq89Lw8j5jvKOQ4pk" version="14.7.4" type="github">
  <diagram name="Page-1" id="c4acf3e9-155e-7222-9cf6-157b1a14988f">
    <mxGraphModel dx="2236" dy="2131" grid="1" gridSize="10" guides="1" tooltips="1" connect="1" arrows="1" fold="1" page="1" pageScale="1" pageWidth="850" pageHeight="1100" background="none" math="0" shadow="0">
      <root>
        <mxCell id="0" />
        <mxCell id="1" parent="0" />
        <mxCell id="JVlBKOM8NZW5-Mta88zk-2" value="&lt;h1&gt;Singleton y mediator&lt;/h1&gt;&lt;p&gt;Un servidor(con ip y direccion) que interactua varios ordenadores ordenadores.&lt;/p&gt;" style="text;html=1;strokeColor=none;fillColor=none;spacing=5;spacingTop=-20;whiteSpace=wrap;overflow=hidden;rounded=0;" vertex="1" parent="1">
          <mxGeometry x="110" y="20" width="260" height="100" as="geometry" />
        </mxCell>
        <mxCell id="JVlBKOM8NZW5-Mta88zk-3" value="&lt;p style=&quot;margin: 0px ; margin-top: 4px ; text-align: center&quot;&gt;&lt;b&gt;Servidor&lt;/b&gt;&lt;/p&gt;&lt;hr size=&quot;1&quot;&gt;&lt;p style=&quot;margin: 0px ; margin-left: 4px&quot;&gt;Static Instance&lt;/p&gt;&lt;p style=&quot;margin: 0px ; margin-left: 4px&quot;&gt;- ip : int&lt;/p&gt;&lt;p style=&quot;margin: 0px ; margin-left: 4px&quot;&gt;- direccion : String&lt;/p&gt;&lt;hr size=&quot;1&quot;&gt;&lt;p style=&quot;margin: 0px ; margin-left: 4px&quot;&gt;Static getInstance() : Servidor&lt;/p&gt;&lt;p style=&quot;margin: 0px ; margin-left: 4px&quot;&gt;+ conectar() : void&lt;/p&gt;&lt;p style=&quot;margin: 0px ; margin-left: 4px&quot;&gt;+ desconectar() : void&lt;/p&gt;" style="verticalAlign=top;align=left;overflow=fill;fontSize=12;fontFamily=Helvetica;html=1;" vertex="1" parent="1">
          <mxGeometry x="50" y="170" width="190" height="140" as="geometry" />
        </mxCell>
        <mxCell id="JVlBKOM8NZW5-Mta88zk-4" value="&lt;p style=&quot;margin: 0px ; margin-top: 4px ; text-align: center&quot;&gt;&lt;i&gt;&amp;lt;&amp;lt;Interface&amp;gt;&amp;gt;&lt;/i&gt;&lt;br&gt;&lt;b&gt;PC&lt;/b&gt;&lt;/p&gt;&lt;hr size=&quot;1&quot;&gt;&lt;p style=&quot;margin: 0px ; margin-left: 4px&quot;&gt;&lt;br&gt;&lt;/p&gt;&lt;hr size=&quot;1&quot;&gt;&lt;p style=&quot;margin: 0px ; margin-left: 4px&quot;&gt;+ conectarse() : void&lt;/p&gt;&lt;p style=&quot;margin: 0px ; margin-left: 4px&quot;&gt;+ desconectarse() : void&lt;/p&gt;&lt;p style=&quot;margin: 0px ; margin-left: 4px&quot;&gt;+ interactuar(): void&lt;/p&gt;" style="verticalAlign=top;align=left;overflow=fill;fontSize=12;fontFamily=Helvetica;html=1;" vertex="1" parent="1">
          <mxGeometry x="615" y="170" width="190" height="140" as="geometry" />
        </mxCell>
        <mxCell id="JVlBKOM8NZW5-Mta88zk-8" value="&lt;p style=&quot;margin: 0px ; margin-top: 4px ; text-align: center&quot;&gt;&lt;b&gt;PC1&lt;/b&gt;&lt;/p&gt;&lt;hr size=&quot;1&quot;&gt;&lt;p style=&quot;margin: 0px ; margin-left: 4px&quot;&gt;- nombre : String&lt;/p&gt;&lt;hr size=&quot;1&quot;&gt;&lt;p style=&quot;margin: 0px ; margin-left: 4px&quot;&gt;+ conectarse() : void&lt;/p&gt;&lt;p style=&quot;margin: 0px ; margin-left: 4px&quot;&gt;+ desconectarse() : void&lt;/p&gt;&lt;p style=&quot;margin: 0px ; margin-left: 4px&quot;&gt;+ interactuar(): void&lt;/p&gt;" style="verticalAlign=top;align=left;overflow=fill;fontSize=12;fontFamily=Helvetica;html=1;" vertex="1" parent="1">
          <mxGeometry x="365" y="380" width="190" height="140" as="geometry" />
        </mxCell>
        <mxCell id="JVlBKOM8NZW5-Mta88zk-12" value="&lt;p style=&quot;margin: 0px ; margin-top: 4px ; text-align: center&quot;&gt;&lt;b&gt;PC3&lt;/b&gt;&lt;/p&gt;&lt;hr size=&quot;1&quot;&gt;&lt;p style=&quot;margin: 0px ; margin-left: 4px&quot;&gt;- nombre : String&lt;/p&gt;&lt;hr size=&quot;1&quot;&gt;&lt;p style=&quot;margin: 0px ; margin-left: 4px&quot;&gt;+ conectarse() : void&lt;/p&gt;&lt;p style=&quot;margin: 0px ; margin-left: 4px&quot;&gt;+ desconectarse() : void&lt;/p&gt;&lt;p style=&quot;margin: 0px ; margin-left: 4px&quot;&gt;+ interactuar(): void&lt;/p&gt;" style="verticalAlign=top;align=left;overflow=fill;fontSize=12;fontFamily=Helvetica;html=1;" vertex="1" parent="1">
          <mxGeometry x="875" y="410" width="190" height="140" as="geometry" />
        </mxCell>
        <mxCell id="JVlBKOM8NZW5-Mta88zk-13" value="&lt;p style=&quot;margin: 0px ; margin-top: 4px ; text-align: center&quot;&gt;&lt;b&gt;PC2&lt;/b&gt;&lt;/p&gt;&lt;hr size=&quot;1&quot;&gt;&lt;p style=&quot;margin: 0px ; margin-left: 4px&quot;&gt;- nombre : String&lt;/p&gt;&lt;hr size=&quot;1&quot;&gt;&lt;p style=&quot;margin: 0px ; margin-left: 4px&quot;&gt;+ conectarse() : void&lt;/p&gt;&lt;p style=&quot;margin: 0px ; margin-left: 4px&quot;&gt;+ desconectarse() : void&lt;/p&gt;&lt;p style=&quot;margin: 0px ; margin-left: 4px&quot;&gt;+ interactuar(): void&lt;/p&gt;" style="verticalAlign=top;align=left;overflow=fill;fontSize=12;fontFamily=Helvetica;html=1;" vertex="1" parent="1">
          <mxGeometry x="615" y="410" width="190" height="140" as="geometry" />
        </mxCell>
        <mxCell id="JVlBKOM8NZW5-Mta88zk-14" value="" style="endArrow=open;endSize=12;dashed=1;html=1;entryX=0.75;entryY=1;entryDx=0;entryDy=0;exitX=0.25;exitY=0;exitDx=0;exitDy=0;" edge="1" parent="1" source="JVlBKOM8NZW5-Mta88zk-12" target="JVlBKOM8NZW5-Mta88zk-4">
          <mxGeometry width="160" relative="1" as="geometry">
            <mxPoint x="575" y="350" as="sourcePoint" />
            <mxPoint x="735" y="350" as="targetPoint" />
          </mxGeometry>
        </mxCell>
        <mxCell id="JVlBKOM8NZW5-Mta88zk-18" value="" style="endArrow=open;endSize=12;dashed=1;html=1;entryX=0.5;entryY=1;entryDx=0;entryDy=0;exitX=0.5;exitY=0;exitDx=0;exitDy=0;" edge="1" parent="1" source="JVlBKOM8NZW5-Mta88zk-13" target="JVlBKOM8NZW5-Mta88zk-4">
          <mxGeometry width="160" relative="1" as="geometry">
            <mxPoint x="585" y="360" as="sourcePoint" />
            <mxPoint x="745" y="360" as="targetPoint" />
          </mxGeometry>
        </mxCell>
        <mxCell id="JVlBKOM8NZW5-Mta88zk-19" value="" style="endArrow=open;endSize=12;dashed=1;html=1;entryX=0.25;entryY=1;entryDx=0;entryDy=0;exitX=0.75;exitY=0;exitDx=0;exitDy=0;" edge="1" parent="1" source="JVlBKOM8NZW5-Mta88zk-8" target="JVlBKOM8NZW5-Mta88zk-4">
          <mxGeometry width="160" relative="1" as="geometry">
            <mxPoint x="595" y="370" as="sourcePoint" />
            <mxPoint x="755" y="370" as="targetPoint" />
          </mxGeometry>
        </mxCell>
        <mxCell id="JVlBKOM8NZW5-Mta88zk-20" value="" style="endArrow=open;endFill=1;endSize=12;html=1;entryX=1;entryY=0.5;entryDx=0;entryDy=0;exitX=0;exitY=0.5;exitDx=0;exitDy=0;" edge="1" parent="1" source="JVlBKOM8NZW5-Mta88zk-4" target="JVlBKOM8NZW5-Mta88zk-3">
          <mxGeometry width="160" relative="1" as="geometry">
            <mxPoint x="345" y="340" as="sourcePoint" />
            <mxPoint x="505" y="340" as="targetPoint" />
          </mxGeometry>
        </mxCell>
        <mxCell id="JVlBKOM8NZW5-Mta88zk-21" value="" style="endArrow=open;endFill=1;endSize=12;html=1;entryX=0.75;entryY=1;entryDx=0;entryDy=0;exitX=0.75;exitY=1;exitDx=0;exitDy=0;" edge="1" parent="1" source="JVlBKOM8NZW5-Mta88zk-3" target="JVlBKOM8NZW5-Mta88zk-8">
          <mxGeometry width="160" relative="1" as="geometry">
            <mxPoint x="625" y="250" as="sourcePoint" />
            <mxPoint x="250" y="250" as="targetPoint" />
            <Array as="points">
              <mxPoint x="193" y="550" />
              <mxPoint x="508" y="550" />
            </Array>
          </mxGeometry>
        </mxCell>
        <mxCell id="JVlBKOM8NZW5-Mta88zk-22" value="" style="endArrow=open;endFill=1;endSize=12;html=1;entryX=0.75;entryY=1;entryDx=0;entryDy=0;exitX=0.5;exitY=1;exitDx=0;exitDy=0;" edge="1" parent="1" source="JVlBKOM8NZW5-Mta88zk-3" target="JVlBKOM8NZW5-Mta88zk-13">
          <mxGeometry width="160" relative="1" as="geometry">
            <mxPoint x="635" y="260" as="sourcePoint" />
            <mxPoint x="260" y="260" as="targetPoint" />
            <Array as="points">
              <mxPoint x="145" y="570" />
              <mxPoint x="758" y="570" />
            </Array>
          </mxGeometry>
        </mxCell>
        <mxCell id="JVlBKOM8NZW5-Mta88zk-23" value="" style="endArrow=open;endFill=1;endSize=12;html=1;entryX=0.25;entryY=1;entryDx=0;entryDy=0;exitX=0.25;exitY=1;exitDx=0;exitDy=0;" edge="1" parent="1" source="JVlBKOM8NZW5-Mta88zk-3" target="JVlBKOM8NZW5-Mta88zk-12">
          <mxGeometry width="160" relative="1" as="geometry">
            <mxPoint x="645" y="270" as="sourcePoint" />
            <mxPoint x="270" y="270" as="targetPoint" />
            <Array as="points">
              <mxPoint x="95" y="610" />
              <mxPoint x="923" y="610" />
            </Array>
          </mxGeometry>
        </mxCell>
        <mxCell id="JVlBKOM8NZW5-Mta88zk-25" value="&lt;h1&gt;Factory Method&lt;/h1&gt;&lt;p&gt;Una fabrica de procesadores(amd o intel)&amp;nbsp;&lt;/p&gt;" style="text;html=1;strokeColor=none;fillColor=none;spacing=5;spacingTop=-20;whiteSpace=wrap;overflow=hidden;rounded=0;" vertex="1" parent="1">
          <mxGeometry x="1540" y="50" width="190" height="120" as="geometry" />
        </mxCell>
        <mxCell id="JVlBKOM8NZW5-Mta88zk-26" value="&lt;p style=&quot;margin: 0px ; margin-top: 4px ; text-align: center&quot;&gt;&lt;b&gt;Cliente&lt;/b&gt;&lt;/p&gt;&lt;hr size=&quot;1&quot;&gt;&lt;p style=&quot;margin: 0px ; margin-left: 4px&quot;&gt;&lt;br&gt;&lt;/p&gt;" style="verticalAlign=top;align=left;overflow=fill;fontSize=12;fontFamily=Helvetica;html=1;" vertex="1" parent="1">
          <mxGeometry x="1810" y="160" width="160" height="50" as="geometry" />
        </mxCell>
        <mxCell id="JVlBKOM8NZW5-Mta88zk-28" value="&lt;p style=&quot;margin: 0px ; margin-top: 4px ; text-align: center&quot;&gt;&lt;i&gt;&amp;lt;&amp;lt;Interface&amp;gt;&amp;gt;&lt;/i&gt;&lt;br&gt;&lt;b&gt;FabricaDeProcesadores&lt;/b&gt;&lt;/p&gt;&lt;hr size=&quot;1&quot;&gt;&lt;p style=&quot;margin: 0px ; margin-left: 4px&quot;&gt;&lt;br&gt;&lt;/p&gt;&lt;hr size=&quot;1&quot;&gt;&lt;p style=&quot;margin: 0px ; margin-left: 4px&quot;&gt;+ CrearProcesador() : FabricaDeProcesadores&lt;/p&gt;" style="verticalAlign=top;align=left;overflow=fill;fontSize=12;fontFamily=Helvetica;html=1;" vertex="1" parent="1">
          <mxGeometry x="1420" y="395" width="280" height="130" as="geometry" />
        </mxCell>
        <mxCell id="JVlBKOM8NZW5-Mta88zk-29" value="&lt;p style=&quot;margin: 0px ; margin-top: 4px ; text-align: center&quot;&gt;&lt;i&gt;&amp;lt;&amp;lt;Interface&amp;gt;&amp;gt;&lt;/i&gt;&lt;br&gt;&lt;b&gt;PCInterface&lt;/b&gt;&lt;/p&gt;&lt;hr size=&quot;1&quot;&gt;&lt;p style=&quot;margin: 0px ; margin-left: 4px&quot;&gt;&lt;br&gt;&lt;/p&gt;&lt;hr size=&quot;1&quot;&gt;&lt;p style=&quot;margin: 0px ; margin-left: 4px&quot;&gt;- CrearProcesador(marca String) : FabricaDeProcesadores&lt;/p&gt;" style="verticalAlign=top;align=left;overflow=fill;fontSize=12;fontFamily=Helvetica;html=1;" vertex="1" parent="1">
          <mxGeometry x="2060" y="280" width="370" height="140" as="geometry" />
        </mxCell>
        <mxCell id="JVlBKOM8NZW5-Mta88zk-30" value="&lt;p style=&quot;margin: 0px ; margin-top: 4px ; text-align: center&quot;&gt;&lt;b&gt;ProcesadorIntel&lt;/b&gt;&lt;/p&gt;&lt;hr size=&quot;1&quot;&gt;&lt;p style=&quot;margin: 0px ; margin-left: 4px&quot;&gt;&lt;br&gt;&lt;/p&gt;&lt;hr size=&quot;1&quot;&gt;&lt;p style=&quot;margin: 0px ; margin-left: 4px&quot;&gt;+ CrearProcesador() : FabricaDeProcesadores&lt;br&gt;&lt;/p&gt;" style="verticalAlign=top;align=left;overflow=fill;fontSize=12;fontFamily=Helvetica;html=1;" vertex="1" parent="1">
          <mxGeometry x="1230" y="630" width="285" height="90" as="geometry" />
        </mxCell>
        <mxCell id="JVlBKOM8NZW5-Mta88zk-32" value="&lt;p style=&quot;margin: 0px ; margin-top: 4px ; text-align: center&quot;&gt;&lt;b&gt;ProcesadorIAMD&lt;/b&gt;&lt;/p&gt;&lt;hr size=&quot;1&quot;&gt;&lt;p style=&quot;margin: 0px ; margin-left: 4px&quot;&gt;&lt;br&gt;&lt;/p&gt;&lt;hr size=&quot;1&quot;&gt;&lt;p style=&quot;margin: 0px ; margin-left: 4px&quot;&gt;+ CrearProcesador() : FabricaDeProcesadores&lt;br&gt;&lt;/p&gt;" style="verticalAlign=top;align=left;overflow=fill;fontSize=12;fontFamily=Helvetica;html=1;" vertex="1" parent="1">
          <mxGeometry x="1600" y="630" width="285" height="90" as="geometry" />
        </mxCell>
        <mxCell id="JVlBKOM8NZW5-Mta88zk-35" value="&lt;p style=&quot;margin: 0px ; margin-top: 4px ; text-align: center&quot;&gt;&lt;i&gt;&amp;lt;&amp;lt;Interface&amp;gt;&amp;gt;&lt;/i&gt;&lt;br&gt;&lt;b&gt;PC&lt;/b&gt;&lt;/p&gt;&lt;hr size=&quot;1&quot;&gt;&lt;p style=&quot;margin: 0px ; margin-left: 4px&quot;&gt;- tipoMemoria : String&lt;/p&gt;&lt;p style=&quot;margin: 0px ; margin-left: 4px&quot;&gt;- cantMemoria : int&lt;/p&gt;&lt;hr size=&quot;1&quot;&gt;&lt;p style=&quot;margin: 0px ; margin-left: 4px&quot;&gt;- CrearProcesador(marca String) : FabricaDeProcesadores&lt;/p&gt;" style="verticalAlign=top;align=left;overflow=fill;fontSize=12;fontFamily=Helvetica;html=1;" vertex="1" parent="1">
          <mxGeometry x="2060" y="560" width="370" height="140" as="geometry" />
        </mxCell>
        <mxCell id="JVlBKOM8NZW5-Mta88zk-38" value="" style="endArrow=block;dashed=1;endFill=0;endSize=12;html=1;entryX=0.5;entryY=1;entryDx=0;entryDy=0;exitX=0.5;exitY=0;exitDx=0;exitDy=0;" edge="1" parent="1" source="JVlBKOM8NZW5-Mta88zk-35" target="JVlBKOM8NZW5-Mta88zk-29">
          <mxGeometry width="160" relative="1" as="geometry">
            <mxPoint x="1890" y="560" as="sourcePoint" />
            <mxPoint x="2050" y="560" as="targetPoint" />
          </mxGeometry>
        </mxCell>
        <mxCell id="JVlBKOM8NZW5-Mta88zk-40" value="" style="endArrow=block;dashed=1;endFill=0;endSize=12;html=1;entryX=0.25;entryY=1;entryDx=0;entryDy=0;exitX=0.75;exitY=0;exitDx=0;exitDy=0;" edge="1" parent="1" source="JVlBKOM8NZW5-Mta88zk-30" target="JVlBKOM8NZW5-Mta88zk-28">
          <mxGeometry width="160" relative="1" as="geometry">
            <mxPoint x="1900" y="569.9999999999998" as="sourcePoint" />
            <mxPoint x="2060" y="569.9999999999998" as="targetPoint" />
          </mxGeometry>
        </mxCell>
        <mxCell id="JVlBKOM8NZW5-Mta88zk-41" value="" style="endArrow=block;dashed=1;endFill=0;endSize=12;html=1;entryX=0.75;entryY=1;entryDx=0;entryDy=0;exitX=0.25;exitY=0;exitDx=0;exitDy=0;" edge="1" parent="1" source="JVlBKOM8NZW5-Mta88zk-32" target="JVlBKOM8NZW5-Mta88zk-28">
          <mxGeometry width="160" relative="1" as="geometry">
            <mxPoint x="1910" y="579.9999999999998" as="sourcePoint" />
            <mxPoint x="2070" y="579.9999999999998" as="targetPoint" />
          </mxGeometry>
        </mxCell>
        <mxCell id="JVlBKOM8NZW5-Mta88zk-43" value="Crea" style="text;html=1;align=center;verticalAlign=middle;resizable=0;points=[];autosize=1;strokeColor=none;" vertex="1" parent="1">
          <mxGeometry x="2010" y="590" width="40" height="20" as="geometry" />
        </mxCell>
        <mxCell id="JVlBKOM8NZW5-Mta88zk-44" value="" style="endArrow=open;endFill=1;endSize=12;html=1;exitX=0.25;exitY=1;exitDx=0;exitDy=0;entryX=0.75;entryY=0;entryDx=0;entryDy=0;" edge="1" parent="1" source="JVlBKOM8NZW5-Mta88zk-26" target="JVlBKOM8NZW5-Mta88zk-28">
          <mxGeometry width="160" relative="1" as="geometry">
            <mxPoint x="1900" y="380" as="sourcePoint" />
            <mxPoint x="2060" y="380" as="targetPoint" />
          </mxGeometry>
        </mxCell>
        <mxCell id="JVlBKOM8NZW5-Mta88zk-45" value="" style="endArrow=open;endSize=12;dashed=1;html=1;entryX=0.25;entryY=0;entryDx=0;entryDy=0;exitX=1;exitY=0.5;exitDx=0;exitDy=0;" edge="1" parent="1" source="JVlBKOM8NZW5-Mta88zk-26" target="JVlBKOM8NZW5-Mta88zk-29">
          <mxGeometry width="160" relative="1" as="geometry">
            <mxPoint x="1870" y="320" as="sourcePoint" />
            <mxPoint x="2030" y="320" as="targetPoint" />
          </mxGeometry>
        </mxCell>
        <mxCell id="JVlBKOM8NZW5-Mta88zk-46" value="Usa" style="text;html=1;align=center;verticalAlign=middle;resizable=0;points=[];autosize=1;strokeColor=none;" vertex="1" parent="1">
          <mxGeometry x="2000" y="180" width="40" height="20" as="geometry" />
        </mxCell>
        <mxCell id="JVlBKOM8NZW5-Mta88zk-47" value="Crea" style="text;html=1;align=center;verticalAlign=middle;resizable=0;points=[];autosize=1;strokeColor=none;" vertex="1" parent="1">
          <mxGeometry x="1770" y="220" width="40" height="20" as="geometry" />
        </mxCell>
        <mxCell id="JVlBKOM8NZW5-Mta88zk-48" value="" style="endArrow=open;endFill=1;endSize=12;html=1;exitX=0;exitY=0.5;exitDx=0;exitDy=0;entryX=1;entryY=0.75;entryDx=0;entryDy=0;" edge="1" parent="1" source="JVlBKOM8NZW5-Mta88zk-35" target="JVlBKOM8NZW5-Mta88zk-28">
          <mxGeometry width="160" relative="1" as="geometry">
            <mxPoint x="1860" y="220" as="sourcePoint" />
            <mxPoint x="1640" y="404.9999999999998" as="targetPoint" />
          </mxGeometry>
        </mxCell>
        <mxCell id="JVlBKOM8NZW5-Mta88zk-49" value="" style="endArrow=none;html=1;" edge="1" parent="1">
          <mxGeometry width="50" height="50" relative="1" as="geometry">
            <mxPoint x="1120" y="840" as="sourcePoint" />
            <mxPoint x="1120" y="-10" as="targetPoint" />
          </mxGeometry>
        </mxCell>
        <mxCell id="JVlBKOM8NZW5-Mta88zk-50" value="" style="endArrow=none;html=1;" edge="1" parent="1">
          <mxGeometry width="50" height="50" relative="1" as="geometry">
            <mxPoint x="1120" y="840" as="sourcePoint" />
            <mxPoint x="-10" y="840" as="targetPoint" />
          </mxGeometry>
        </mxCell>
        <mxCell id="JVlBKOM8NZW5-Mta88zk-51" value="" style="endArrow=none;html=1;" edge="1" parent="1">
          <mxGeometry width="50" height="50" relative="1" as="geometry">
            <mxPoint x="1120" y="840" as="sourcePoint" />
            <mxPoint x="2560" y="840" as="targetPoint" />
          </mxGeometry>
        </mxCell>
        <mxCell id="JVlBKOM8NZW5-Mta88zk-52" value="" style="endArrow=none;html=1;" edge="1" parent="1">
          <mxGeometry width="50" height="50" relative="1" as="geometry">
            <mxPoint y="840" as="sourcePoint" />
            <mxPoint as="targetPoint" />
          </mxGeometry>
        </mxCell>
        <mxCell id="JVlBKOM8NZW5-Mta88zk-53" value="" style="endArrow=none;html=1;" edge="1" parent="1">
          <mxGeometry width="50" height="50" relative="1" as="geometry">
            <mxPoint as="sourcePoint" />
            <mxPoint x="1130" as="targetPoint" />
          </mxGeometry>
        </mxCell>
        <mxCell id="JVlBKOM8NZW5-Mta88zk-54" value="" style="endArrow=none;html=1;" edge="1" parent="1">
          <mxGeometry width="50" height="50" relative="1" as="geometry">
            <mxPoint x="1120" as="sourcePoint" />
            <mxPoint x="2550" as="targetPoint" />
          </mxGeometry>
        </mxCell>
        <mxCell id="JVlBKOM8NZW5-Mta88zk-55" value="" style="endArrow=none;html=1;" edge="1" parent="1">
          <mxGeometry width="50" height="50" relative="1" as="geometry">
            <mxPoint x="2553" y="840" as="sourcePoint" />
            <mxPoint x="2553.3333333333335" as="targetPoint" />
          </mxGeometry>
        </mxCell>
        <mxCell id="JVlBKOM8NZW5-Mta88zk-56" value="&lt;h1&gt;Heading&lt;/h1&gt;&lt;p&gt;U&lt;/p&gt;" style="text;html=1;strokeColor=none;fillColor=none;spacing=5;spacingTop=-20;whiteSpace=wrap;overflow=hidden;rounded=0;" vertex="1" parent="1">
          <mxGeometry x="50" y="-790" width="190" height="120" as="geometry" />
        </mxCell>
      </root>
    </mxGraphModel>
  </diagram>
</mxfile>
